/vscmnt/brussel_pixiu_data/_data_brussel/112/vsc11236/PredSimResults/SUBJ11opt3D/trackIG/worker_10.mot
version=1
nRows=5
nColumns=50
inDegrees=yes
endheader
                time	         pelvis_tilt	         pelvis_list	     pelvis_rotation	           pelvis_tx	           pelvis_ty	           pelvis_tz	       hip_flexion_r	     hip_adduction_r	      hip_rotation_r	        knee_angle_r	       ankle_angle_r	         mtp_angle_r	       hip_flexion_l	     hip_adduction_l	      hip_rotation_l	        knee_angle_l	       ankle_angle_l	         mtp_angle_l	    lumbar_extension	      lumbar_bending	     lumbar_rotation	 ercspn_r/activation	 intobl_r/activation	 extobl_r/activation	    abd_r/activation	    add_r/activation	hamstrings_r/activation	bifemsh_r/activation	glut_max_r/activation	iliopsoas_r/activation	rect_fem_r/activation	  vasti_r/activation	gastroc_r/activation	 soleus_r/activation	tib_ant_r/activation	 ercspn_l/activation	 intobl_l/activation	 extobl_l/activation	    abd_l/activation	    add_l/activation	hamstrings_l/activation	bifemsh_l/activation	glut_max_l/activation	iliopsoas_l/activation	rect_fem_l/activation	  vasti_l/activation	gastroc_l/activation	 soleus_l/activation	tib_ant_l/activation	
          0.00000000	         -6.78959413	         -3.18048752	          8.32585163	          0.00000000	          0.92824042	         -0.00723953	         36.04301837	         -0.93737406	         -7.83561454	         -7.89388192	          3.65840387	          0.27123880	        -13.73874954	         -4.32849864	          1.62988348	        -11.39088956	          8.28570130	         37.63755526	        -13.22231216	          1.48864535	         -1.92913319	          0.07829625	          0.24837429	          0.02393817	          0.01000360	          0.22530862	          0.07954320	          0.25951029	          0.03121694	          0.14615097	          0.02898792	          0.01000112	          0.01673602	          0.01000587	          0.50315647	          0.03093435	          0.01000349	          0.01000229	          0.03125458	          0.01412300	          0.01193301	          0.31313039	          0.02047323	          0.09689533	          0.01075702	          0.01000798	          0.20629570	          0.31864986	          0.01408591	
          0.01120392	         -6.79481409	         -3.32361225	          8.51066027	          0.02106619	          0.92586162	         -0.00667375	         36.29126632	         -0.74190338	         -8.04936595	         -9.94930065	          3.11823934	          0.31525959	        -14.77107304	         -4.70776664	          1.32329748	        -11.59117589	          6.85783019	         39.61760855	        -12.72630109	          1.90169409	         -2.19264335	          0.06597989	          0.20929354	          0.02017168	          0.01000065	          0.33770128	          0.06702786	          0.21867772	          0.16578164	          0.12315440	          0.02443066	          0.01000172	          0.01410333	          0.01000093	          0.57193620	          0.02608000	          0.01000193	          0.01000370	          0.02633685	          0.14838438	          0.01006607	          0.26387686	          0.01725290	          0.35136981	          0.01188299	          0.01403845	          0.17383598	          0.28423017	          0.01186961	
          0.02240784	         -6.77690091	         -3.44382369	          8.65454558	          0.04248856	          0.92361320	         -0.00608915	         36.38723857	         -0.59082985	         -8.03463224	        -12.27318040	          2.52772129	          0.23087194	        -15.62091073	         -5.04887829	          0.97720201	        -12.18792899	          5.37842063	         41.52482636	        -12.21153150	          2.29555834	         -2.44443064	          0.05560251	          0.17636384	          0.01699785	          0.08945041	          0.34125658	          0.07017189	          0.18426989	          0.22663121	          0.10377622	          0.02059037	          0.01000105	          0.01188613	          0.01186500	          0.65819930	          0.07606626	          0.01000293	          0.01000630	          0.02219289	          0.13597241	          0.01673613	          0.22240240	          0.01453919	          0.38752525	          0.01002168	          0.01186871	          0.14648324	          0.24164581	          0.01000216	
          0.03361176	         -6.74201792	         -3.52945049	          8.74972848	          0.06394016	          0.92169483	         -0.00542125	         36.38992725	         -0.44790982	         -8.02207945	        -14.51888160	          2.02585908	          0.19750081	        -16.13467363	         -5.33981250	          0.61399211	        -13.40632332	          3.88976837	         43.26884011	        -11.71607806	          2.65002166	         -2.67547197	          0.06782227	          0.14861386	          0.01432344	          0.15415266	          0.41034919	          0.05913293	          0.15527600	          0.28571320	          0.08744720	          0.01735495	          0.01000094	          0.01001658	          0.01000045	          0.73734279	          0.08890644	          0.01000139	          0.01000545	          0.01870098	          0.15784633	          0.01410688	          0.18744051	          0.01225207	          0.51236002	          0.01001660	          0.01000839	          0.12343432	          0.20362351	          0.01000057	
          0.04481568	         -6.68937096	         -3.58647582	          8.79467159	          0.08512286	          0.92026271	         -0.00466578	         36.42675483	         -0.31468978	         -8.02475385	        -16.82406748	          1.51507853	          0.13748305	        -16.18234023	         -5.58730627	          0.25741947	        -15.44001765	          2.43700607	         44.71177912	        -11.27630335	          2.97576269	         -2.87498238	          0.10188839	          0.12523025	          0.01206990	          0.19480077	          0.47259161	          0.04983131	          0.13084418	          0.32888759	          0.07368754	          0.01463041	          0.02810722	          0.01000412	          0.01000271	          0.76142808	          0.11932282	          0.01000206	          0.01000272	          0.01575851	          0.20600190	          0.01189207	          0.15879715	          0.01032538	          0.55818768	          0.01000493	          0.01000125	          0.10401212	          0.17158364	          0.01000109	
